<svg xmlns="http://www.w3.org/2000/svg" viewBox="0 0 596 116" width="596" height="116">
	<style>
		tspan { white-space:pre }
		.shp0 { fill: none;stroke: #fff;stroke-width: 4 } 
		.shp1 { fill: #fff } 
	</style>
	<g id="Layer 1">
		<g id="decoration 3 1 ">
			<path id="&lt;Path&gt;" class="shp0" d="M305 31.91L297.93 38.98L290.86 31.91L297.93 24.83L305 31.91Z" />
			<path id="&lt;Path&gt;" class="shp0" d="M313.16 81.88L297.93 97.12L282.69 81.88L297.93 66.65L313.16 81.88Z" />
			<g id="&lt;Group&gt;">
				<path id="&lt;Path&gt;" class="shp1" d="M587.72 60.66C582.69 60.87 577.65 60.97 572.61 61.13C567.57 61.25 562.53 61.35 557.49 61.42L542.38 61.59L527.27 61.65L526.44 61.66L525.85 61.07L519.96 55.18L522.79 55.18L506.23 71.76L504.81 73.18L503.39 71.76L492.85 61.23L495.7 61.23L490.76 66.18L490.76 63.32L495.56 68.12L492.69 68.12L502.26 58.54L502.26 61.42L492.36 51.52L495.24 51.52L485.67 61.09L485.07 61.69L484.23 61.69L376.81 61.74L378.28 61.13L362.77 76.66L361.29 78.14L359.8 76.66L314.62 31.51L292.03 8.93L291.42 8.44L291.33 8.37L291.28 8.36L291.19 8.33C291.14 8.31 291.09 8.29 291.04 8.25C290.9 8.2 290.68 8.16 290.52 8.09C290.33 8.06 290.14 8.06 289.95 8.03C289.17 8.02 288.44 8.33 287.88 8.89L282.23 14.54L270.95 25.84L270.95 22.8L322.15 73.96L319.07 73.96L333.57 59.46L333.57 62.54L319.27 48.27L322.38 48.27L313.89 56.76L313.89 53.65L341.49 81.23L338.36 81.23L367.33 52.24L367.33 55.39L346.2 34.29L349.38 34.29L342.39 41.28L342.4 38.11L356.35 52.23L357.92 53.83L356.33 55.41L328.11 83.66L313.99 97.79L306.94 104.85L303.41 108.38L302.97 108.82L302.75 109.04L302.69 109.1L302.46 109.31L302.34 109.4C301.98 109.68 301.83 109.89 301.1 110.29C300.79 110.46 300.47 110.64 300.17 110.76L299.3 111.03C298.72 111.22 298.1 111.21 297.5 111.27C296.3 111.21 295.07 110.99 294.02 110.36C293.46 110.1 293.01 109.69 292.54 109.31C292.27 109.08 292.2 108.98 292.03 108.82L291.59 108.38L288.06 104.85L281.01 97.79L266.89 83.66L238.67 55.41L237.08 53.83L238.65 52.23L252.6 38.11L252.61 41.28L245.62 34.29L248.8 34.29L227.67 55.39L227.67 52.24L256.64 81.23L253.51 81.23L281.11 53.65L281.11 56.76L272.62 48.27L275.73 48.27L261.43 62.54L261.43 59.46L275.93 73.96L272.85 73.96L324.05 22.8L324.05 25.84L312.77 14.54L307.12 8.89C306 7.73 304.11 7.74 302.97 8.93L280.38 31.51L235.2 76.66L233.71 78.14L232.23 76.66L216.72 61.13L218.19 61.74L110.77 61.69L109.93 61.69L109.33 61.09L99.76 51.52L102.64 51.52L92.74 61.42L92.74 58.54L102.31 68.12L99.44 68.12L104.24 63.32L104.24 66.18L99.3 61.23L102.15 61.23L91.61 71.76L90.19 73.18L88.77 71.76L72.21 55.18L75.04 55.18L69.15 61.07L68.56 61.66L67.73 61.65L52.62 61.59L37.51 61.42C32.47 61.35 27.43 61.25 22.39 61.13C17.35 60.97 12.31 60.87 7.28 60.66C6.72 60.63 6.3 60.16 6.32 59.61C6.34 59.09 6.77 58.68 7.28 58.66C12.31 58.44 17.35 58.34 22.39 58.18C27.43 58.06 32.47 57.96 37.51 57.89L52.62 57.72L67.73 57.66L66.32 58.24L72.21 52.35L73.62 50.93L75.04 52.35L91.61 68.91L88.77 68.91L99.3 58.37L100.72 56.95L102.15 58.37L107.1 63.32L108.53 64.75L107.1 66.18L102.31 70.98L100.88 72.41L99.44 70.98L89.87 61.42L88.43 59.98L89.87 58.54L99.76 48.64L101.2 47.2L102.64 48.64L112.22 58.21L110.77 57.61L218.19 57.57L219.06 57.57L219.67 58.18L235.2 73.69L232.23 73.69L277.38 28.51L299.96 5.92C301.22 4.62 303.14 3.75 305.03 3.76C305.5 3.78 305.97 3.83 306.44 3.89C306.9 4.01 307.35 4.13 307.81 4.3C308.29 4.53 308.82 4.83 309.22 5.09L309.6 5.41L309.8 5.56L309.89 5.64L309.94 5.68L310.15 5.87L315.79 11.51L327.09 22.8L328.61 24.32L327.09 25.84L275.93 77.04L274.39 78.58L272.85 77.04L258.35 62.54L256.8 61L258.35 59.46L272.62 45.16L274.17 43.61L275.73 45.16L284.22 53.65L285.77 55.2L284.22 56.76L256.64 84.36L255.07 85.92L253.51 84.36L224.52 55.39L222.94 53.82L224.52 52.24L245.62 31.12L247.21 29.53L248.8 31.12L255.79 38.1L257.37 39.68L255.8 41.27L241.86 55.4L241.85 52.22L270.1 80.45L284.23 94.56L291.29 101.62L294.82 105.15L295.26 105.59C295.4 105.72 295.59 105.93 295.66 105.96C295.85 106.09 295.99 106.28 296.21 106.35C296.59 106.61 297.06 106.64 297.5 106.7C297.72 106.63 297.96 106.7 298.17 106.6C298.27 106.56 298.38 106.53 298.49 106.51C298.58 106.47 298.61 106.43 298.67 106.42C298.72 106.49 299.16 106.1 299.45 105.86L299.57 105.76C299.74 105.62 299.39 105.94 299.43 105.89L299.46 105.86L299.51 105.81L299.74 105.59L300.18 105.15L303.71 101.62L310.77 94.56L324.9 80.45L353.15 52.22L353.14 55.4L339.2 41.27L337.63 39.68L339.21 38.1L346.2 31.12L347.79 29.53L349.38 31.12L370.48 52.24L372.06 53.82L370.48 55.39L341.49 84.36L339.93 85.92L338.36 84.36L310.78 56.76L309.23 55.2L310.78 53.65L319.27 45.16L320.83 43.61L322.38 45.16L336.65 59.46L338.2 61L336.65 62.54L322.15 77.04L320.61 78.58L319.07 77.04L267.91 25.84L266.39 24.32L267.91 22.8L279.21 11.51L284.85 5.87C286.16 4.54 288.08 3.72 289.97 3.76C290.44 3.8 290.92 3.82 291.39 3.91C291.85 4.05 292.29 4.15 292.76 4.35C293.01 4.47 293.25 4.6 293.49 4.74L293.84 4.95L294.02 5.05L294.12 5.13L294.51 5.45L294.7 5.61L294.8 5.69L295 5.87L295.04 5.92L317.62 28.51L362.77 73.69L359.8 73.69L375.33 58.18L375.94 57.57L376.81 57.57L484.23 57.61L482.78 58.21L492.36 48.64L493.8 47.2L495.24 48.64L505.13 58.54L506.57 59.98L505.13 61.42L495.56 70.98L494.12 72.41L492.69 70.98L487.9 66.18L486.47 64.75L487.9 63.32L492.85 58.37L494.28 56.95L495.7 58.37L506.23 68.91L503.39 68.91L519.96 52.35L521.38 50.93L522.79 52.35L528.68 58.24L527.27 57.66L542.38 57.72L557.49 57.89C562.53 57.96 567.57 58.06 572.61 58.18C577.65 58.34 582.69 58.44 587.72 58.66C588.28 58.68 588.7 59.15 588.68 59.7C588.66 60.22 588.23 60.63 587.72 60.66Z" />
			</g>
		</g>
	</g>
</svg>