<svg xmlns="http://www.w3.org/2000/svg" viewBox="0 0 624 65" width="624" height="65">
	<style>
		tspan { white-space:pre }
		.shp0 { fill: #2c2e35 } 
		.shp1 { fill: none;stroke: #2c2e35;stroke-linecap:round;stroke-width: 4 } 
	</style>
	<g id="Layer 1">
		<g id="decoration 4 1 ">
			<g id="&lt;Group&gt;">
				<path id="&lt;Path&gt;" class="shp0" d="M147.82 43.87L-3.24 41.87L147.82 39.87C148.92 39.85 149.83 40.74 149.85 41.84C149.86 42.94 148.98 43.85 147.87 43.87C147.86 43.87 147.83 43.87 147.82 43.87Z" />
			</g>
			<g id="&lt;Group&gt;">
				<path id="&lt;Path&gt;" class="shp0" d="M474.42 39.87L625.47 41.87L474.42 43.87C473.31 43.88 472.4 43 472.39 41.89C472.37 40.79 473.26 39.88 474.36 39.87C474.38 39.87 474.4 39.87 474.42 39.87Z" />
			</g>
			<path id="&lt;Path&gt;" class="shp1" d="M147.82 41.87L236.8 41.87C237.86 41.87 238.88 41.45 239.63 40.7L251.15 29.17C252.71 27.61 255.24 27.61 256.81 29.17L286.46 58.83C288.02 60.39 290.55 60.39 292.12 58.83L306.96 43.98C308.52 42.42 308.52 39.89 306.96 38.33L297.48 28.85C295.92 27.29 293.39 27.29 291.82 28.85L282.98 37.69C281.42 39.25 281.42 41.79 282.98 43.35L285.63 45.99C287.19 47.56 289.72 47.56 291.28 45.99L294.11 43.16C295.68 41.6 295.68 39.07 294.11 37.5L284.67 28.06L278.16 21.56C276.6 19.99 274.07 19.99 272.51 21.56L260.85 33.22L254.29 39.77C252.72 41.34 252.73 43.89 254.31 45.45L255.75 46.86C257.31 48.4 259.83 48.4 261.38 46.84L289.14 19.08L301.17 7.06C302.73 5.5 305.26 5.5 306.82 7.06L317.66 17.89C319.22 19.45 319.22 21.99 317.66 23.55L311.12 30.09L304.58 23.55C303.01 21.99 303.01 19.45 304.58 17.89L315.41 7.06C316.97 5.5 319.51 5.5 321.07 7.06L333.09 19.08L360.85 46.84C362.4 48.4 364.92 48.4 366.49 46.86L367.92 45.45C369.5 43.89 369.51 41.34 367.94 39.77L361.39 33.22L349.73 21.56C348.17 19.99 345.63 19.99 344.07 21.56L337.56 28.06L328.12 37.5C326.56 39.07 326.56 41.6 328.12 43.16L330.95 45.99C332.52 47.56 335.05 47.56 336.61 45.99L339.25 43.35C340.82 41.79 340.82 39.25 339.25 37.69L330.41 28.85C328.85 27.29 326.32 27.29 324.75 28.85L315.28 38.33C313.71 39.89 313.71 42.42 315.28 43.98L330.12 58.83C331.68 60.39 334.21 60.39 335.78 58.83L365.43 29.17C366.99 27.61 369.52 27.61 371.09 29.17L382.61 40.7C383.36 41.45 384.38 41.87 385.44 41.87L474.42 41.87" />
		</g>
	</g>
</svg>