<svg aria-hidden="true" style="position: absolute; width: 0; height: 0; overflow: hidden;" version="1.1" xmlns="http://www.w3.org/2000/svg" xmlns:xlink="http://www.w3.org/1999/xlink">
<defs>
<symbol id="icon-cc-amex" viewBox="0 0 36 28">
<title>cc-amex</title>
<path d="M1.859 10.656h1.391l-0.703-1.687zM11.562 18.875l1.156-1.234-1.094-1.234h-2.547v0.766h2.219v0.859h-2.219v0.844h2.484zM14.031 17.656l1.547 1.719v-3.391zM18.531 16.922c0-0.375-0.281-0.516-0.625-0.516h-1.313v1.078h1.297c0.359 0 0.641-0.172 0.641-0.562zM23.047 16.859c0-0.391-0.344-0.453-0.656-0.453h-1.281v0.953h1.266c0.344 0 0.672-0.078 0.672-0.5zM18.703 9.578c0-0.391-0.344-0.453-0.656-0.453h-1.281v0.938h1.266c0.344 0 0.672-0.078 0.672-0.484zM25.875 10.656h1.391l-0.688-1.687zM10.922 8.234v4.234h-1.031v-3.313l-1.469 3.313h-0.891l-1.469-3.313v3.313h-2.063l-0.391-0.938h-2.109l-0.391 0.938h-1.094l1.813-4.234h1.5l1.719 4.016v-4.016h1.656l1.328 2.875 1.203-2.875h1.687zM19.609 16.922c0 1.703-1.859 1.422-3.016 1.422v1.422h-1.969l-1.25-1.406-1.297 1.406h-4v-4.234h4.062l1.25 1.391 1.281-1.391h3.234c0.953 0 1.703 0.328 1.703 1.391zM15.062 11.594v0.875h-3.391v-4.234h3.391v0.891h-2.375v0.766h2.312v0.859h-2.312v0.844h2.375zM36 20.328v3.578c0 1.141-0.922 2.094-2.063 2.094h-31.875c-1.141 0-2.063-0.953-2.063-2.094v-10.594h1.734l0.391-0.953h0.859l0.391 0.953h3.406v-0.719l0.297 0.719h1.766l0.313-0.734v0.734h8.453v-1.547l0.156-0.016c0.141 0 0.156 0.109 0.156 0.219v1.344h4.359v-0.359c1.016 0.531 2.406 0.359 3.469 0.359l0.391-0.953h0.875l0.391 0.953h3.547v-0.906l0.531 0.906h2.844v-5.906h-2.812v0.688l-0.391-0.688h-2.891v0.688l-0.359-0.688h-3.891c-0.578 0-1.188 0.063-1.703 0.344v-0.344h-2.688v0.344c-0.313-0.281-0.734-0.344-1.141-0.344h-9.812l-0.672 1.516-0.672-1.516h-3.094v0.688l-0.344-0.688h-2.641l-1.219 2.797v-6.109c0-1.141 0.922-2.094 2.063-2.094h31.875c1.141 0 2.063 0.953 2.063 2.094v10.594h-1.875c-0.438 0-0.906 0.078-1.266 0.344v-0.344h-2.766c-0.391 0-0.922 0.063-1.219 0.344v-0.344h-4.937v0.344c-0.375-0.266-0.922-0.344-1.359-0.344h-3.266v0.344c-0.328-0.313-1-0.344-1.422-0.344h-3.656l-0.844 0.906-0.781-0.906h-5.453v5.906h5.359l0.859-0.922 0.812 0.922h3.297v-1.391h0.328c0.469 0 0.953-0.016 1.406-0.203v1.594h2.719v-1.547h0.125c0.156 0 0.187 0.016 0.187 0.187v1.359h8.266c0.453 0 1.016-0.094 1.375-0.375v0.375h2.625c0.5 0 1.031-0.047 1.484-0.266zM24.156 16.672c0 0.469-0.25 0.938-0.719 1.125 0.562 0.203 0.672 0.578 0.672 1.125v0.844h-1.016v-0.703c0-0.719-0.234-0.844-0.906-0.844h-1.078v1.547h-1.016v-4.234h2.406c0.797 0 1.656 0.141 1.656 1.141zM19.828 9.375c0 0.484-0.266 0.953-0.719 1.141 0.578 0.203 0.672 0.562 0.672 1.125v0.828h-1.016c-0.016-0.906 0.219-1.531-0.906-1.531h-1.094v1.531h-1v-4.234l2.391 0.016c0.812 0 1.672 0.125 1.672 1.125zM28.094 18.891v0.875h-3.375v-4.234h3.375v0.875h-2.359v0.766h2.312v0.859h-2.312v0.844zM21.438 8.234v4.234h-1.031v-4.234h1.031zM32.266 18.422c0 1-0.688 1.344-1.594 1.344h-1.969v-0.906h1.969c0.25 0 0.531-0.063 0.531-0.391 0-0.906-2.609 0.344-2.609-1.672 0-0.859 0.656-1.266 1.437-1.266h2.031v0.891h-1.859c-0.266 0-0.562 0.047-0.562 0.391 0 0.922 2.625-0.422 2.625 1.609zM36 17.641v1.578c-0.297 0.438-0.875 0.547-1.375 0.547h-1.953v-0.906h1.953c0.25 0 0.516-0.078 0.516-0.391 0-0.891-2.609 0.344-2.609-1.672 0-0.859 0.672-1.266 1.453-1.266h2.016v0.891h-1.844c-0.281 0-0.562 0.047-0.562 0.391 0 0.75 1.766-0.016 2.406 0.828zM33.422 8.25v4.219h-1.437l-1.906-3.172v3.172h-2.063l-0.406-0.938h-2.094l-0.391 0.938h-1.172c-1.391 0-2.016-0.719-2.016-2.078 0-1.422 0.641-2.156 2.078-2.156h0.984v0.922c-1.062-0.016-2.031-0.25-2.031 1.203 0 0.719 0.172 1.219 0.984 1.219h0.453l1.437-3.328h1.516l1.703 4v-4h1.547l1.781 2.938v-2.938h1.031z"></path>
</symbol>
<symbol id="icon-cc-mastercard" viewBox="0 0 36 28">
<title>cc-mastercard</title>
<path d="M17.484 5.328c-1.297-0.859-2.828-1.328-4.391-1.328-4.391 0-7.953 3.563-7.953 7.938 0 4.391 3.563 7.953 7.953 7.953 1.563 0 3.094-0.469 4.391-1.328-4.188-3.406-4.156-9.828 0-13.234zM18 5.703c-4.031 3.172-4.047 9.328 0 12.484 4.047-3.156 4.031-9.312 0-12.484zM18.516 5.328c4.141 3.406 4.203 9.844 0 13.234 1.297 0.859 2.844 1.328 4.391 1.328 4.391 0 7.953-3.563 7.953-7.953 0-4.375-3.563-7.938-7.953-7.938-1.563 0-3.094 0.469-4.391 1.328zM30.094 16.609h0.109v-0.047h-0.266v0.047h0.109v0.266h0.047v-0.266zM30.547 16.875h0.063v-0.313h-0.078l-0.094 0.203-0.094-0.203h-0.078v0.313h0.047v-0.234l0.094 0.203h0.063l0.078-0.203v0.234zM30.422 23.75v0.031h-0.078v-0.047h0.078v0.016zM30.422 23.891h0.047l-0.063-0.078c0.031 0 0.031-0.016 0.047-0.016 0.016-0.016 0.016-0.031 0.016-0.047s0-0.031-0.016-0.047c-0.016 0-0.031-0.016-0.063-0.016h-0.094v0.203h0.047v-0.078h0.016zM10.703 22.828c0-0.375 0.234-0.672 0.641-0.672 0.375 0 0.625 0.297 0.625 0.672 0 0.391-0.25 0.672-0.625 0.672-0.406 0-0.641-0.297-0.641-0.672zM18.094 22.141c0.297 0 0.5 0.172 0.547 0.5h-1.094c0.047-0.297 0.234-0.5 0.547-0.5zM23.656 22.828c0-0.375 0.234-0.672 0.625-0.672s0.641 0.297 0.641 0.672c0 0.391-0.25 0.672-0.641 0.672s-0.625-0.297-0.625-0.672zM27.906 22.828c0-0.375 0.25-0.672 0.641-0.672 0.375 0 0.641 0.297 0.641 0.672 0 0.391-0.266 0.672-0.641 0.672-0.391 0-0.641-0.297-0.641-0.672zM30.375 23.953c-0.016 0-0.031 0-0.063-0.016-0.016 0-0.031-0.016-0.047-0.031s-0.031-0.031-0.031-0.047-0.016-0.047-0.016-0.063 0-0.047 0.016-0.063c0-0.031 0.016-0.047 0.031-0.063s0.031-0.016 0.047-0.031 0.047-0.016 0.063-0.016 0.047 0 0.063 0.016 0.047 0.016 0.063 0.031 0.016 0.031 0.031 0.063c0 0.016 0.016 0.031 0.016 0.063 0 0.016-0.016 0.031-0.016 0.063-0.016 0.016-0.016 0.031-0.031 0.047s-0.031 0.031-0.063 0.031c-0.016 0.016-0.031 0.016-0.063 0.016zM9.359 23.891h0.469v-1.328c0-0.5-0.328-0.828-0.844-0.844-0.266 0-0.547 0.078-0.734 0.375-0.141-0.234-0.375-0.375-0.703-0.375-0.219 0-0.438 0.078-0.609 0.313v-0.25h-0.469v2.109h0.469v-1.172c0-0.375 0.203-0.562 0.516-0.562s0.469 0.203 0.469 0.562v1.172h0.453v-1.172c0-0.375 0.219-0.562 0.516-0.562 0.313 0 0.469 0.203 0.469 0.562v1.172zM11.953 23.891h0.453v-2.109h-0.453v0.25c-0.156-0.187-0.375-0.313-0.672-0.313-0.594 0-1.047 0.469-1.047 1.109s0.453 1.109 1.047 1.109c0.297 0 0.516-0.109 0.672-0.313v0.266zM14.734 23.25c0-0.375-0.281-0.562-0.734-0.625l-0.219-0.031c-0.203-0.031-0.359-0.078-0.359-0.219s0.141-0.234 0.391-0.234c0.281 0 0.531 0.094 0.672 0.172l0.187-0.375c-0.219-0.141-0.516-0.219-0.859-0.219-0.531 0-0.875 0.266-0.875 0.688 0 0.344 0.25 0.547 0.734 0.609l0.203 0.031c0.266 0.047 0.375 0.109 0.375 0.219 0 0.172-0.172 0.266-0.484 0.266s-0.547-0.109-0.703-0.219l-0.203 0.359c0.25 0.172 0.562 0.266 0.906 0.266 0.609 0 0.969-0.281 0.969-0.688zM16.766 23.781l-0.125-0.391c-0.141 0.078-0.281 0.109-0.406 0.109-0.234 0-0.297-0.141-0.297-0.344v-0.953h0.75v-0.422h-0.75v-0.641h-0.469v0.641h-0.438v0.422h0.438v0.953c0 0.484 0.187 0.781 0.734 0.781 0.187 0 0.422-0.063 0.562-0.156zM18.109 21.719c-0.609 0-1.047 0.453-1.047 1.109 0 0.672 0.453 1.109 1.078 1.109 0.313 0 0.609-0.078 0.859-0.297l-0.219-0.344c-0.172 0.141-0.406 0.234-0.609 0.234-0.297 0-0.562-0.141-0.641-0.516h1.578v-0.187c0-0.656-0.406-1.109-1-1.109zM20.594 21.719c-0.266 0-0.438 0.125-0.547 0.313v-0.25h-0.469v2.109h0.469v-1.188c0-0.344 0.141-0.547 0.453-0.547 0.094 0 0.187 0.016 0.281 0.063l0.141-0.438c-0.109-0.047-0.234-0.063-0.328-0.063zM21.063 22.828c0 0.641 0.438 1.109 1.125 1.109 0.313 0 0.531-0.063 0.75-0.25l-0.219-0.375c-0.172 0.125-0.344 0.203-0.547 0.187-0.375 0-0.641-0.266-0.641-0.672s0.266-0.672 0.641-0.672c0.203 0 0.375 0.063 0.547 0.187l0.219-0.375c-0.219-0.172-0.438-0.25-0.75-0.25-0.688 0-1.125 0.469-1.125 1.109zM24.891 23.891h0.469v-2.109h-0.469v0.25c-0.141-0.187-0.359-0.313-0.656-0.313-0.594 0-1.062 0.469-1.062 1.109s0.469 1.109 1.062 1.109c0.297 0 0.516-0.109 0.656-0.313v0.266zM26.969 21.719c-0.266 0-0.438 0.125-0.547 0.313v-0.25h-0.453v2.109h0.453v-1.188c0-0.344 0.156-0.547 0.453-0.547 0.094 0 0.187 0.016 0.281 0.063l0.141-0.438c-0.094-0.047-0.234-0.063-0.328-0.063zM29.156 23.891h0.453v-2.969h-0.453v1.109c-0.141-0.187-0.359-0.313-0.672-0.313-0.578 0-1.047 0.469-1.047 1.109s0.469 1.109 1.047 1.109c0.313 0 0.531-0.109 0.672-0.313v0.266zM30.375 23.578c-0.016 0-0.047 0.016-0.078 0.016-0.031 0.016-0.047 0.031-0.063 0.047-0.031 0.016-0.047 0.047-0.047 0.063-0.016 0.031-0.016 0.063-0.016 0.094 0 0.016 0 0.047 0.016 0.078 0 0.016 0.016 0.047 0.047 0.063 0.016 0.016 0.031 0.031 0.063 0.047s0.063 0.016 0.078 0.016c0.031 0 0.063 0 0.094-0.016 0.016-0.016 0.047-0.031 0.063-0.047s0.031-0.047 0.047-0.063c0.016-0.031 0.016-0.063 0.016-0.078 0-0.031 0-0.063-0.016-0.094-0.016-0.016-0.031-0.047-0.047-0.063s-0.047-0.031-0.063-0.047c-0.031 0-0.063-0.016-0.094-0.016zM36 4v20c0 1.094-0.906 2-2 2h-32c-1.094 0-2-0.906-2-2v-20c0-1.094 0.906-2 2-2h32c1.094 0 2 0.906 2 2z"></path>
</symbol>
<symbol id="icon-trello" viewBox="0 0 24 28">
<title>trello</title>
<path d="M11 21v-16c0-0.281-0.219-0.5-0.5-0.5h-7.5c-0.281 0-0.5 0.219-0.5 0.5v16c0 0.281 0.219 0.5 0.5 0.5h7.5c0.281 0 0.5-0.219 0.5-0.5zM21.5 15v-10c0-0.281-0.219-0.5-0.5-0.5h-7.5c-0.281 0-0.5 0.219-0.5 0.5v10c0 0.281 0.219 0.5 0.5 0.5h7.5c0.281 0 0.5-0.219 0.5-0.5zM24 3v22c0 0.547-0.453 1-1 1h-22c-0.547 0-1-0.453-1-1v-22c0-0.547 0.453-1 1-1h22c0.547 0 1 0.453 1 1z"></path>
</symbol>
<symbol id="icon-cc-visa" viewBox="0 0 36 28">
<title>cc-visa</title>
<path d="M30.859 15.469h-2.156c0 0 0.219-0.578 1.031-2.797-0.016 0.016 0.219-0.578 0.344-0.953l0.187 0.859c0.484 2.391 0.594 2.891 0.594 2.891zM8.297 14.453l-0.906-4.609c-0.125-0.641-0.609-0.844-1.172-0.844h-4.188l-0.031 0.203c2.875 0.734 5.234 2.297 6.297 5.25zM11.094 9l-2.531 6.844-0.266-1.391c-0.547-1.453-1.875-2.797-3.375-3.406l2.109 7.969h2.734l4.078-10.016h-2.75zM13.266 19.031h2.594l1.625-10.031h-2.594zM25.266 9.25c-0.516-0.203-1.328-0.422-2.328-0.422-2.562 0-4.359 1.359-4.375 3.313-0.016 1.437 1.281 2.234 2.266 2.719 1.016 0.484 1.344 0.812 1.344 1.25 0 0.672-0.812 0.969-1.547 0.969-1.047 0-1.609-0.125-2.438-0.516l-0.344-0.172-0.359 2.25c0.609 0.281 1.719 0.531 2.891 0.531 2.719 0.016 4.484-1.344 4.516-3.422 0-1.141-0.703-2-2.188-2.719-0.906-0.453-1.453-0.781-1.453-1.25 0-0.422 0.469-0.859 1.484-0.859 0.844-0.016 1.469 0.156 1.937 0.375l0.234 0.125zM31.906 9h-2c-0.625 0-1.094 0.187-1.359 0.844l-3.844 9.188h2.719c0.438-1.234 0.547-1.5 0.547-1.5h3.313c0 0 0.078 0.344 0.313 1.5h2.406zM36 4v20c0 1.094-0.906 2-2 2h-32c-1.094 0-2-0.906-2-2v-20c0-1.094 0.906-2 2-2h32c1.094 0 2 0.906 2 2z"></path>
</symbol>
<symbol id="icon-cc-paypal" viewBox="0 0 36 28">
<title>cc-paypal</title>
<path d="M11.641 14.156c0 0.766-0.609 1.344-1.375 1.344-0.578 0-1-0.328-1-0.938 0-0.766 0.594-1.375 1.359-1.375 0.578 0 1.016 0.359 1.016 0.969zM23.906 11.828c0 0.938-0.562 1.125-1.375 1.125l-0.5 0.016 0.266-1.672c0.016-0.109 0.094-0.172 0.203-0.172h0.281c0.531 0 1.125 0.031 1.125 0.703zM29.391 14.156c0 0.766-0.609 1.344-1.359 1.344-0.578 0-1.016-0.328-1.016-0.938 0-0.766 0.594-1.375 1.359-1.375 0.578 0 1.016 0.359 1.016 0.969zM8.016 11.484c0-1.313-1.016-1.75-2.172-1.75h-2.5c-0.156 0-0.313 0.125-0.328 0.297l-1.016 6.375c-0.016 0.125 0.078 0.25 0.203 0.25h1.188c0.172 0 0.328-0.125 0.344-0.297l0.281-1.719c0.063-0.453 0.828-0.297 1.125-0.297 1.781 0 2.875-1.062 2.875-2.859zM12.844 16.359l0.641-4.078c0.016-0.125-0.078-0.25-0.203-0.25h-1.188c-0.234 0-0.25 0.344-0.266 0.516-0.359-0.531-0.891-0.625-1.484-0.625-1.531 0-2.703 1.344-2.703 2.828 0 1.219 0.766 2.016 1.984 2.016 0.562 0 1.266-0.25 1.656-0.688-0.031 0.094-0.063 0.234-0.063 0.328 0 0.141 0.063 0.25 0.203 0.25h1.078c0.172 0 0.313-0.125 0.344-0.297zM19.828 12.25c0-0.109-0.094-0.219-0.203-0.219h-1.203c-0.109 0-0.219 0.063-0.281 0.156l-1.656 2.438-0.688-2.344c-0.047-0.141-0.187-0.25-0.344-0.25h-1.172c-0.109 0-0.203 0.109-0.203 0.219 0 0.078 1.219 3.609 1.328 3.938-0.172 0.234-1.281 1.687-1.281 1.875 0 0.109 0.094 0.203 0.203 0.203h1.203c0.109 0 0.219-0.063 0.281-0.156l3.984-5.75c0.031-0.031 0.031-0.063 0.031-0.109zM25.766 11.484c0-1.313-1.016-1.75-2.172-1.75h-2.484c-0.172 0-0.328 0.125-0.344 0.297l-1.016 6.375c-0.016 0.125 0.078 0.25 0.203 0.25h1.281c0.125 0 0.219-0.094 0.25-0.203l0.281-1.813c0.063-0.453 0.828-0.297 1.125-0.297 1.781 0 2.875-1.062 2.875-2.859zM30.594 16.359l0.641-4.078c0.016-0.125-0.078-0.25-0.203-0.25h-1.188c-0.234 0-0.25 0.344-0.266 0.516-0.344-0.531-0.875-0.625-1.484-0.625-1.531 0-2.703 1.344-2.703 2.828 0 1.219 0.766 2.016 1.984 2.016 0.578 0 1.281-0.25 1.656-0.688-0.016 0.094-0.063 0.234-0.063 0.328 0 0.141 0.063 0.25 0.203 0.25h1.078c0.172 0 0.313-0.125 0.344-0.297zM34 9.969v-0.016c0-0.125-0.094-0.219-0.203-0.219h-1.156c-0.094 0-0.187 0.078-0.203 0.172l-1.016 6.5-0.016 0.031c0 0.109 0.094 0.219 0.219 0.219h1.031c0.156 0 0.313-0.125 0.328-0.297zM6.125 12.063c-0.125 0.797-0.656 0.891-1.344 0.891l-0.516 0.016 0.266-1.672c0.016-0.109 0.109-0.172 0.203-0.172h0.297c0.703 0 1.234 0.094 1.094 0.938zM36 4v20c0 1.094-0.906 2-2 2h-32c-1.094 0-2-0.906-2-2v-20c0-1.094 0.906-2 2-2h32c1.094 0 2 0.906 2 2z"></path>
</symbol>
<symbol id="icon-facebook" viewBox="0 0 16 28">
<title>facebook</title>
<path d="M14.984 0.187v4.125h-2.453c-1.922 0-2.281 0.922-2.281 2.25v2.953h4.578l-0.609 4.625h-3.969v11.859h-4.781v-11.859h-3.984v-4.625h3.984v-3.406c0-3.953 2.422-6.109 5.953-6.109 1.687 0 3.141 0.125 3.563 0.187z"></path>
</symbol>
<symbol id="icon-twitter" viewBox="0 0 26 28">
<title>twitter</title>
<path d="M25.312 6.375c-0.688 1-1.547 1.891-2.531 2.609 0.016 0.219 0.016 0.438 0.016 0.656 0 6.672-5.078 14.359-14.359 14.359-2.859 0-5.516-0.828-7.75-2.266 0.406 0.047 0.797 0.063 1.219 0.063 2.359 0 4.531-0.797 6.266-2.156-2.219-0.047-4.078-1.5-4.719-3.5 0.313 0.047 0.625 0.078 0.953 0.078 0.453 0 0.906-0.063 1.328-0.172-2.312-0.469-4.047-2.5-4.047-4.953v-0.063c0.672 0.375 1.453 0.609 2.281 0.641-1.359-0.906-2.25-2.453-2.25-4.203 0-0.938 0.25-1.797 0.688-2.547 2.484 3.062 6.219 5.063 10.406 5.281-0.078-0.375-0.125-0.766-0.125-1.156 0-2.781 2.25-5.047 5.047-5.047 1.453 0 2.766 0.609 3.687 1.594 1.141-0.219 2.234-0.641 3.203-1.219-0.375 1.172-1.172 2.156-2.219 2.781 1.016-0.109 2-0.391 2.906-0.781z"></path>
</symbol>
<symbol id="icon-youtube" viewBox="0 0 24 28">
<title>youtube</title>
<path d="M15.172 19.437v3.297c0 0.703-0.203 1.047-0.609 1.047-0.234 0-0.469-0.109-0.703-0.344v-4.703c0.234-0.234 0.469-0.344 0.703-0.344 0.406 0 0.609 0.359 0.609 1.047zM20.453 19.453v0.719h-1.406v-0.719c0-0.703 0.234-1.062 0.703-1.062s0.703 0.359 0.703 1.062zM5.359 16.047h1.672v-1.469h-4.875v1.469h1.641v8.891h1.563v-8.891zM9.859 24.938h1.391v-7.719h-1.391v5.906c-0.313 0.438-0.609 0.656-0.891 0.656-0.187 0-0.297-0.109-0.328-0.328-0.016-0.047-0.016-0.219-0.016-0.547v-5.688h-1.391v6.109c0 0.547 0.047 0.906 0.125 1.141 0.125 0.391 0.453 0.578 0.906 0.578 0.5 0 1.031-0.313 1.594-0.953v0.844zM16.562 22.625v-3.078c0-0.719-0.031-1.234-0.141-1.547-0.172-0.578-0.562-0.875-1.109-0.875-0.516 0-1 0.281-1.453 0.844v-3.391h-1.391v10.359h1.391v-0.75c0.469 0.578 0.953 0.859 1.453 0.859 0.547 0 0.938-0.297 1.109-0.859 0.109-0.328 0.141-0.844 0.141-1.563zM21.844 22.469v-0.203h-1.422c0 0.562-0.016 0.875-0.031 0.953-0.078 0.375-0.281 0.562-0.625 0.562-0.484 0-0.719-0.359-0.719-1.078v-1.359h2.797v-1.609c0-0.828-0.141-1.422-0.422-1.813-0.406-0.531-0.953-0.797-1.656-0.797-0.719 0-1.266 0.266-1.672 0.797-0.297 0.391-0.438 0.984-0.438 1.813v2.703c0 0.828 0.156 1.437 0.453 1.813 0.406 0.531 0.953 0.797 1.687 0.797s1.313-0.281 1.687-0.828c0.172-0.25 0.297-0.531 0.328-0.844 0.031-0.141 0.031-0.453 0.031-0.906zM12.344 8.203v-3.281c0-0.719-0.203-1.078-0.672-1.078-0.453 0-0.672 0.359-0.672 1.078v3.281c0 0.719 0.219 1.094 0.672 1.094 0.469 0 0.672-0.375 0.672-1.094zM23.578 19.938c0 1.797-0.016 3.719-0.406 5.469-0.297 1.234-1.297 2.141-2.5 2.266-2.875 0.328-5.781 0.328-8.672 0.328s-5.797 0-8.672-0.328c-1.203-0.125-2.219-1.031-2.5-2.266-0.406-1.75-0.406-3.672-0.406-5.469v0c0-1.813 0.016-3.719 0.406-5.469 0.297-1.234 1.297-2.141 2.516-2.281 2.859-0.313 5.766-0.313 8.656-0.313s5.797 0 8.672 0.313c1.203 0.141 2.219 1.047 2.5 2.281 0.406 1.75 0.406 3.656 0.406 5.469zM7.984 0h1.594l-1.891 6.234v4.234h-1.563v-4.234c-0.141-0.766-0.453-1.859-0.953-3.313-0.344-0.969-0.688-1.953-1.016-2.922h1.656l1.109 4.109zM13.766 5.203v2.734c0 0.828-0.141 1.453-0.438 1.844-0.391 0.531-0.938 0.797-1.656 0.797-0.703 0-1.25-0.266-1.641-0.797-0.297-0.406-0.438-1.016-0.438-1.844v-2.734c0-0.828 0.141-1.437 0.438-1.828 0.391-0.531 0.938-0.797 1.641-0.797 0.719 0 1.266 0.266 1.656 0.797 0.297 0.391 0.438 1 0.438 1.828zM19 2.672v7.797h-1.422v-0.859c-0.562 0.656-1.094 0.969-1.609 0.969-0.453 0-0.781-0.187-0.922-0.578-0.078-0.234-0.125-0.609-0.125-1.172v-6.156h1.422v5.734c0 0.328 0 0.516 0.016 0.547 0.031 0.219 0.141 0.344 0.328 0.344 0.281 0 0.578-0.219 0.891-0.672v-5.953h1.422z"></path>
</symbol>
</defs>
</svg>
